<?xml version="1.0" encoding="UTF-8"?>
<svg version="1.1" xmlns="http://www.w3.org/2000/svg" width="2000" height="601">
<path d="M0 0 C660 0 1320 0 2000 0 C2000 198.33 2000 396.66 2000 601 C1340 601 680 601 0 601 C0 402.67 0 204.34 0 0 Z " fill="#FDFDFD" transform="translate(0,0)"/>
<path d="M0 0 C2.05778876 -0.00572217 4.11557435 -0.01269344 6.1733551 -0.02079773 C11.6965224 -0.03854462 17.21952922 -0.0375955 22.74271631 -0.03185534 C27.38631482 -0.02873517 32.02988375 -0.03488732 36.67347801 -0.04089409 C47.64774151 -0.05487839 58.62192708 -0.05343031 69.59619141 -0.04199219 C80.8416156 -0.03052895 92.08680078 -0.04457064 103.33219349 -0.07138866 C113.05526831 -0.09369079 122.77826892 -0.1001503 132.50136745 -0.09431225 C138.27834547 -0.09097449 144.0551706 -0.09314166 149.83212662 -0.11056328 C227.30027255 -0.32159701 227.30027255 -0.32159701 254.91357422 25.59545898 C259.29917474 30.37310561 262.44950868 35.70265527 265.49169922 41.40405273 C266.10464844 42.54293945 266.10464844 42.54293945 266.72998047 43.70483398 C275.83192045 62.36556809 276.94962381 84.66735131 276.89575195 105.02685547 C276.90147261 107.0137622 276.90844332 109.00066566 276.91654968 110.98756409 C276.93431709 116.32704006 276.933343 121.66635022 276.9276073 127.00584674 C276.92448894 131.49516068 276.93063757 135.98444397 276.93664604 140.47375351 C276.95063826 151.08653282 276.9491767 161.69923156 276.93774414 172.31201172 C276.92629115 183.18247293 276.94030343 194.0526866 276.96714061 204.92311519 C276.98945912 214.32260169 276.99589833 223.72201143 276.9900642 233.12152249 C276.98672894 238.70573899 276.9888757 244.28979733 277.00631523 249.87399101 C277.17855012 310.89703338 277.17855012 310.89703338 266.49169922 335.40405273 C265.90775391 336.81944336 265.90775391 336.81944336 265.31201172 338.26342773 C258.03634561 354.42042419 244.36332909 364.5919701 228.49169922 371.40405273 C224.21330567 373.01043842 219.91697069 374.2683636 215.49169922 375.40405273 C214.81623047 375.5806543 214.14076172 375.75725586 213.44482422 375.93920898 C211.21541144 376.51260112 208.98060732 377.05650887 206.74169922 377.59155273 C205.74348145 377.84231567 205.74348145 377.84231567 204.72509766 378.09814453 C190.47472167 381.32492705 175.14353284 380.55088859 160.6171875 380.53344727 C158.68853726 380.53480602 156.75988729 380.5365886 154.83123779 380.53875732 C149.65038353 380.543271 144.46954943 380.54156851 139.28869486 380.53837824 C133.85024878 380.53582813 128.41180431 380.53819904 122.97335815 380.5397644 C113.86016533 380.54157623 104.74698065 380.5392035 95.63378906 380.53442383 C85.09469269 380.52896019 74.55561559 380.53076299 64.01651967 380.53625023 C54.9486875 380.54078229 45.88086115 380.54143215 36.81302822 380.53881156 C31.40457586 380.53725224 25.99613259 380.5370461 20.58768082 380.54034805 C15.51668386 380.54322886 10.44571195 380.54124723 5.37471771 380.5354538 C3.5118476 380.53412831 1.64897539 380.53451675 -0.21389389 380.53671646 C-2.74962951 380.53943563 -5.285284 380.53603763 -7.8210144 380.53103638 C-8.93445136 380.53438246 -8.93445136 380.53438246 -10.070382 380.53779614 C-13.16091854 380.52591333 -15.55196283 380.38949872 -18.50830078 379.40405273 C-20.4741724 379.19460861 -22.44055647 378.98867754 -24.40942383 378.80957031 C-46.57111962 376.75257059 -68.7870324 369.60489503 -83.59423828 352.02514648 C-91.28291287 341.49636965 -95.96719874 330.29740015 -99.07080078 317.71655273 C-99.27898437 316.90766602 -99.48716797 316.0987793 -99.70166016 315.26538086 C-103.13532623 301.49842502 -103.79916868 288.27088065 -103.76708984 274.16430664 C-103.76980479 272.14734267 -103.77336853 270.1303797 -103.77770996 268.11341858 C-103.78677752 262.66911498 -103.78331275 257.22488773 -103.77695179 251.7805829 C-103.7718611 246.06078173 -103.77659186 240.34098676 -103.77972412 234.6211853 C-103.78335544 225.01656938 -103.77858719 215.41198428 -103.76904297 205.80737305 C-103.75816625 194.73462532 -103.7616817 183.66195131 -103.77269578 172.58920538 C-103.78179987 163.05162639 -103.78303852 153.51406946 -103.77781844 143.97648752 C-103.77471507 138.29371648 -103.77424408 132.61097997 -103.78089142 126.92821121 C-103.78670959 121.58142369 -103.78258691 116.23473027 -103.77110291 110.8879528 C-103.76847981 108.93659941 -103.76918068 106.98523796 -103.77362823 105.03388786 C-103.79651117 93.965378 -103.32235213 83.33633547 -101.50830078 72.40405273 C-101.38876667 71.63136866 -101.26923256 70.85868458 -101.1460762 70.06258583 C-97.80696698 49.32236556 -88.72994221 29.41391914 -71.50830078 16.77905273 C-50.00886489 2.04369961 -25.32712854 -0.064881 0 0 Z " fill="#020303" transform="translate(234.50830078125,110.595947265625)"/>
<path d="M0 0 C660 0 1320 0 2000 0 C2000 198.33 2000 396.66 2000 601 C1340 601 680 601 0 601 C0 402.67 0 204.34 0 0 Z M45 33 C44.43539062 33.43441406 43.87078125 33.86882813 43.2890625 34.31640625 C26.22462061 47.86758069 17.03071075 68.8656613 14 90 C12.95066556 99.93563366 12.85785475 109.8422348 12.87301636 119.8180542 C12.87186201 121.48673132 12.87027238 123.15540818 12.86828911 124.82408452 C12.86413948 129.37622201 12.86616657 133.92833836 12.86927533 138.4804759 C12.87154688 143.40192268 12.86804125 148.32336594 12.86529541 153.24481201 C12.86085867 162.86942378 12.86180451 172.49402773 12.86470805 182.1186398 C12.86696874 189.93630464 12.86727172 197.7539673 12.86618423 205.57163239 C12.866031 206.68527751 12.86587777 207.79892264 12.86571989 208.94631459 C12.86540017 211.20868292 12.86507595 213.47105124 12.8647473 215.73341957 C12.86189906 236.92186515 12.86517007 258.11030639 12.87054767 279.29875126 C12.8750225 297.49441707 12.87423292 315.6900765 12.86962891 333.88574219 C12.86428429 355.01828849 12.86216591 376.150831 12.86524117 397.28337789 C12.86555973 399.53363752 12.8658741 401.78389716 12.86618423 404.0341568 C12.86633851 405.14135357 12.86649279 406.24855035 12.86665174 407.38929854 C12.86751668 415.2071524 12.86605465 423.02500387 12.86370468 430.84285736 C12.86090807 440.3553834 12.8616423 449.86790118 12.86698543 459.38042626 C12.86962319 464.23723419 12.87062614 469.09402833 12.86733627 473.95083618 C12.8643753 478.38892721 12.86596273 482.82699154 12.87131383 487.26508012 C12.87243877 488.87775359 12.87184513 490.49042928 12.86943804 492.10310134 C12.86643516 494.28046125 12.86947731 496.4577274 12.87415886 498.63508224 C12.87432121 499.84883616 12.87448356 501.06259008 12.87465084 502.31312442 C12.6939884 504.91845046 12.6939884 504.91845046 14 506 C14.2814307 507.80788634 14.52333756 509.62193387 14.75 511.4375 C18.00624103 532.82561554 25.57762242 548.7796623 41 564 C41.75152344 564.75023437 42.50304687 565.50046875 43.27734375 566.2734375 C62.56527131 584.480125 89.51920765 588.17824823 114.97104108 588.12534916 C116.22974708 588.12675148 117.48845307 588.1281538 118.78530167 588.12959861 C122.26549111 588.13333382 125.74565236 588.1308945 129.22584104 588.12740866 C133.03128143 588.12471388 136.83671793 588.12786233 140.64215791 588.13024551 C147.33280672 588.13363433 154.02344737 588.1333104 160.71409635 588.13056196 C170.73028823 588.12646602 180.74647351 588.12814619 190.76266553 588.1309446 C207.83383255 588.1355445 224.90499658 588.13539465 241.97616386 588.13266373 C259.27710086 588.12991291 276.57803589 588.12933179 293.87897301 588.13140106 C294.97153451 588.13153023 296.06409602 588.13165941 297.18976545 588.13179249 C301.63956858 588.13232576 306.08937172 588.13287447 310.53917485 588.13344277 C351.99182917 588.13873311 393.44448218 588.13909035 434.89713669 588.13629532 C436.73989834 588.13617113 436.73989834 588.13617113 438.6198875 588.13604442 C439.85035786 588.13596149 441.08082822 588.13587856 442.34858556 588.13579312 C479.81763248 588.13327114 517.28667887 588.13261799 554.75572586 588.13381577 C557.26366844 588.13389324 559.77161102 588.1339704 562.2795536 588.13404724 C572.35765699 588.1343577 582.43576037 588.13467636 592.51386375 588.135007 C620.68749376 588.13592407 648.86112378 588.13649462 677.0347538 588.13679314 C678.31778013 588.13680678 679.60080646 588.13682043 680.92271238 588.13683449 C721.81338067 588.13724384 762.7040488 588.13611741 803.59471703 588.13394356 C804.25786508 588.13390844 804.92101313 588.13387332 805.60425657 588.13383714 C827.81649275 588.13266079 850.02872891 588.13140472 872.24096508 588.13014051 C939.40845524 588.12632026 1006.57594471 588.12422625 1126.5248984 588.13025584 C1148.72906422 588.13151905 1170.93323004 588.13276757 1193.13739586 588.13394356 C1193.80028692 588.1339788 1194.46317799 588.13401405 1195.14615666 588.13405036 C1236.66132443 588.13625576 1278.17649209 588.13723467 1319.69165993 588.13679314 C1321.6148311 588.13677276 1321.6148311 588.13677276 1323.57685421 588.13675197 C1351.72028095 588.1364395 1379.86370768 588.13580589 1408.00713441 588.13488263 C1418.07692192 588.13455349 1428.14670944 588.13424041 1438.21649696 588.13393192 C1440.72165018 588.13385453 1443.2268034 588.1337758 1445.73195662 588.13369573 C1483.19064587 588.13250166 1520.64933449 588.13351949 1558.10802366 588.13604442 C1559.33636583 588.13612722 1560.56470801 588.13621001 1561.83027267 588.13629532 C1563.05635375 588.136378 1564.28243483 588.13646068 1565.54566988 588.13654587 C1606.87963877 588.1393028 1648.21360608 588.13829213 1689.54757474 588.13301457 C1693.98445812 588.13246221 1698.42134149 588.13192551 1702.85822487 588.13140106 C1704.49157728 588.13120575 1704.49157728 588.13120575 1706.1579267 588.1310065 C1723.41284203 588.12903267 1740.6677554 588.13040887 1757.92267055 588.13317007 C1774.88168111 588.13581277 1791.84068835 588.13489149 1808.79969849 588.13015598 C1818.74681681 588.12748449 1828.69392605 588.12754806 1838.64104394 588.13163758 C1845.24577264 588.13407986 1851.85049427 588.1329018 1858.45522211 588.12877072 C1862.20016629 588.12652963 1865.9450924 588.12582869 1869.69003578 588.12958724 C1873.71945872 588.13359636 1877.74883815 588.12982834 1881.77826059 588.12534916 C1882.92375982 588.12773991 1884.06925905 588.13013065 1885.24947037 588.13259384 C1896.64674945 588.10681669 1907.94053581 587.74345743 1919 584.8125 C1919.84957275 584.59110352 1920.69914551 584.36970703 1921.57446289 584.14160156 C1943.82555305 578.11609627 1962.18162346 565.41885608 1974.0703125 545.45703125 C1978.47235877 537.57077427 1981.27902771 529.46268071 1983.75 520.8125 C1983.96108398 520.07612305 1984.17216797 519.33974609 1984.38964844 518.58105469 C1987.25236709 508.05621549 1987.14527968 497.5349715 1987.13371277 486.71247864 C1987.13558271 485.05239377 1987.13788414 483.39230934 1987.14057809 481.7322256 C1987.14667994 477.18474904 1987.1465644 472.63729092 1987.14538372 468.08981121 C1987.1451793 463.17963242 1987.15070239 458.26945949 1987.15544128 453.35928345 C1987.16373962 443.74446797 1987.16649576 434.12965862 1987.16705366 424.51483987 C1987.16752923 416.69719081 1987.16958599 408.87954378 1987.17275429 401.06189537 C1987.18155877 378.88496302 1987.18617401 356.7080355 1987.18542381 334.53110138 C1987.18538386 333.33610892 1987.1853439 332.14111646 1987.18530273 330.90991211 C1987.18526185 329.71345622 1987.18522097 328.51700032 1987.18517885 327.28428819 C1987.18477248 307.89796382 1987.19434037 288.51165889 1987.2084411 269.12534014 C1987.2228139 249.20738766 1987.22971078 229.28944464 1987.22884732 209.37148684 C1987.22851566 198.19401299 1987.23124938 187.01655952 1987.24202538 175.83909035 C1987.25114228 166.32170941 1987.25329585 156.80435807 1987.24651595 147.28697465 C1987.24325672 142.4346435 1987.24317247 137.58236912 1987.2518692 132.73004341 C1987.25976157 128.28060178 1987.25827496 123.83126166 1987.24958507 119.38182243 C1987.24805609 117.77956448 1987.24984333 116.17729886 1987.25544515 114.57504997 C1987.28711014 104.8685829 1986.66622215 95.58271788 1985 86 C1984.79858368 84.80701907 1984.79858368 84.80701907 1984.59309834 83.58993751 C1981.93976939 68.91685102 1976.17893199 55.07937598 1966 44 C1965.57203125 43.53110352 1965.1440625 43.06220703 1964.703125 42.57910156 C1946.17451396 22.5106815 1922.87136729 14.81416255 1896 13 C1886.73751238 12.6562088 1877.46422443 12.72648012 1868.19670836 12.74518268 C1864.39529868 12.75059834 1860.59390411 12.74426629 1856.79249603 12.73950899 C1850.11670296 12.73274802 1843.4409426 12.73336737 1836.76514885 12.73887607 C1826.7711761 12.7470855 1816.77722971 12.74370005 1806.78325634 12.73811079 C1789.74775639 12.7289218 1772.71226838 12.72920545 1755.67676735 12.73467255 C1738.41662415 12.74017797 1721.15648881 12.74133339 1703.89634514 12.73719788 C1702.26017256 12.73681036 1702.26017256 12.73681036 1700.59094598 12.73641501 C1696.14824401 12.73534845 1691.70554204 12.73425103 1687.26284009 12.73311446 C1645.89474579 12.72253877 1604.52665677 12.72181711 1563.15856171 12.72740936 C1561.32027016 12.72765775 1561.32027016 12.72765775 1559.44484141 12.72791115 C1557.60360398 12.72815994 1557.60360398 12.72815994 1555.72516983 12.72841376 C1518.33238645 12.73345964 1480.93960524 12.73476314 1443.54682159 12.73236847 C1441.04305302 12.73221351 1438.53928444 12.7320592 1436.03551587 12.73190553 C1425.97392163 12.7312846 1415.91232739 12.73064726 1405.85073316 12.729986 C1377.72383398 12.72815195 1349.59693479 12.72701077 1321.47003555 12.72641373 C1319.54874842 12.72637279 1319.54874842 12.72637279 1317.5886474 12.72633103 C1276.77230265 12.72551242 1235.95595861 12.72776463 1195.13961411 12.73211288 C1194.47775677 12.73218312 1193.81589944 12.73225336 1193.13398583 12.73232572 C1170.96562748 12.73467836 1148.79726914 12.73719053 1126.62891081 12.73971898 C1059.59930884 12.74735899 992.56970966 12.75154787 872.86976666 12.73948832 C850.71189782 12.73696185 828.55402898 12.73446478 806.39616013 12.73211288 C805.73462909 12.7320424 805.07309805 12.73197191 804.39152061 12.73189928 C762.95339265 12.72748763 721.51526519 12.72553083 680.07713699 12.72641373 C678.15717914 12.72645448 678.15717914 12.72645448 676.19843425 12.72649606 C648.10034589 12.72712103 620.00225757 12.72838833 591.90416926 12.73023473 C581.85029823 12.73089301 571.7964272 12.73151918 561.74255616 12.73213615 C559.2414163 12.73229093 556.74027644 12.73244839 554.23913658 12.73260855 C516.85920223 12.73499548 479.47927033 12.73296331 442.09933628 12.72791115 C440.87413977 12.72774556 439.64894325 12.72757997 438.38661957 12.72740936 C437.16368341 12.727244 435.94074724 12.72707863 434.68075241 12.72690826 C393.42773536 12.72139106 352.17472464 12.72342253 310.92170849 12.73397085 C306.49089204 12.73507555 302.06007558 12.73614896 297.62925911 12.73719788 C295.99816864 12.7375885 295.99816864 12.7375885 294.33412685 12.73798701 C277.12287925 12.74193028 259.91163953 12.73918691 242.70039265 12.73365986 C225.77263761 12.7283665 208.84489583 12.73023154 191.91714247 12.73968804 C181.99621732 12.74501902 172.07532854 12.74492488 162.15440514 12.73672485 C155.55815409 12.73182254 148.96193126 12.73422423 142.36568361 12.74245855 C138.6312887 12.74691964 134.89696601 12.74839235 131.16257445 12.74082552 C85.12625112 12.46545998 85.12625112 12.46545998 45 33 Z " fill="#2D2F36" transform="translate(0,0)"/>
<path d="M0 0 C14.06884915 11.78355386 21.44267244 29.23564066 23.55859375 47.18359375 C25.52631727 71.48241607 22.31757042 94.84015325 6.4296875 114.125 C-2.08291794 123.49064315 -12.05379294 130.34564165 -24.98364258 131.38867188 C-27.76417233 131.48723121 -30.5342248 131.50566109 -33.31640625 131.49609375 C-34.24582031 131.51220703 -35.17523437 131.52832031 -36.1328125 131.54492188 C-48.90447921 131.5538282 -58.05470734 127.00036158 -67.703125 119.00390625 C-70.25835214 116.32809536 -72.29089173 113.19431408 -74.44140625 110.18359375 C-74.77140625 133.28359375 -75.10140625 156.38359375 -75.44140625 180.18359375 C-83.03140625 180.18359375 -90.62140625 180.18359375 -98.44140625 180.18359375 C-98.44140625 118.14359375 -98.44140625 56.10359375 -98.44140625 -7.81640625 C-90.85140625 -7.81640625 -83.26140625 -7.81640625 -75.44140625 -7.81640625 C-75.11140625 -1.87640625 -74.78140625 4.06359375 -74.44140625 10.18359375 C-73.65765625 9.02859375 -72.87390625 7.87359375 -72.06640625 6.68359375 C-65.26483061 -2.32130921 -56.28308346 -8.44180636 -45.12109375 -10.3984375 C-28.42522414 -12.29488978 -13.75412404 -10.23306829 0 0 Z " fill="#070808" transform="translate(853.44140625,319.81640625)"/>
<path d="M0 0 C15.8523603 -0.43359848 28.80913008 3.75190392 40.48242188 14.57788086 C53.8159277 27.68815016 60.02671799 46.4527326 60.28144836 64.84835815 C60.2891618 66.88758004 60.27705645 68.92570625 60.2578125 70.96484375 C60.25410645 71.66955811 60.25040039 72.37427246 60.24658203 73.1003418 C60.09858378 92.86259308 55.46125435 113.68466749 40.8203125 128.15234375 C37.29731435 131.05946963 33.6389712 133.6500726 29.8203125 136.15234375 C28.87478516 136.80396484 28.87478516 136.80396484 27.91015625 137.46875 C17.25766138 144.29339801 1.47948028 143.32864622 -10.6015625 141.6875 C-20.66623039 139.28505809 -28.55856688 132.92691751 -35.1796875 125.15234375 C-36.1696875 123.50234375 -37.1596875 121.85234375 -38.1796875 120.15234375 C-38.5096875 143.25234375 -38.8396875 166.35234375 -39.1796875 190.15234375 C-46.4396875 190.15234375 -53.6996875 190.15234375 -61.1796875 190.15234375 C-61.1796875 128.44234375 -61.1796875 66.73234375 -61.1796875 3.15234375 C-53.9196875 3.15234375 -46.6596875 3.15234375 -39.1796875 3.15234375 C-38.8496875 9.42234375 -38.5196875 15.69234375 -38.1796875 22.15234375 C-37.3753125 20.99734375 -36.5709375 19.84234375 -35.7421875 18.65234375 C-28.22729481 8.75510746 -19.55201004 2.90783073 -7.3046875 0.33984375 C-4.87199276 0.17328996 -2.43606457 0.11671562 0 0 Z " fill="#040505" transform="translate(974.1796875,308.84765625)"/>
<path d="M0 0 C1.16781006 0.00523682 2.33562012 0.01047363 3.53881836 0.01586914 C4.79887695 0.0190918 6.05893555 0.02231445 7.35717773 0.02563477 C8.6976732 0.03399136 10.03816799 0.04245632 11.37866211 0.05102539 C12.72306153 0.05603879 14.06746271 0.06060197 15.41186523 0.06469727 C18.71334151 0.07653051 22.01473014 0.09301568 25.31616211 0.11352539 C27.82729555 5.6330936 30.1697086 11.16935271 32.25366211 16.86352539 C32.77267127 18.26606245 33.29220935 19.66840389 33.81225586 21.07055664 C34.06604004 21.75585449 34.31982422 22.44115234 34.58129883 23.1472168 C35.6322132 25.95919832 36.72491588 28.75448762 37.81616211 31.55102539 C39.75473799 36.55901308 41.55226982 41.60490504 43.31616211 46.67602539 C45.38665137 52.61740072 47.62952184 58.43822245 50.10131836 64.22680664 C51.85569063 68.39555619 53.46070929 72.6175465 55.07006836 76.84399414 C55.8821499 78.97475355 56.70208878 81.10254005 57.53100586 83.22680664 C59.91327694 89.33851168 62.16127411 95.48157969 64.31616211 101.67602539 C66.38842512 107.62240455 68.63610152 113.44706948 71.10522461 119.24243164 C74.49138647 127.27091218 77.45180745 135.45035001 80.31616211 143.67602539 C82.38245344 149.60461113 84.62316234 155.41228567 87.08178711 161.19165039 C88.47244787 164.48346763 89.81422674 167.79051463 91.12866211 171.11352539 C91.54760742 172.16540039 91.96655273 173.21727539 92.39819336 174.30102539 C93.31616211 177.11352539 93.31616211 177.11352539 93.31616211 181.11352539 C85.06616211 181.11352539 76.81616211 181.11352539 68.31616211 181.11352539 C67.55303711 178.80352539 66.78991211 176.49352539 66.00366211 174.11352539 C64.6268352 169.96482914 63.25002381 165.82324323 61.69116211 161.73852539 C60.71317288 159.16019016 59.80056426 156.60492751 58.94116211 153.98852539 C56.83256529 147.66273493 54.55884265 141.39303091 52.31616211 135.11352539 C25.25616211 134.78352539 -1.80383789 134.45352539 -29.68383789 134.11352539 C-30.34383789 137.41352539 -31.00383789 140.71352539 -31.68383789 144.11352539 C-32.62886919 146.8278653 -33.60717353 149.45663713 -34.68383789 152.11352539 C-35.26133951 153.64044499 -35.83406826 155.16917631 -36.40258789 156.69946289 C-36.69520508 157.48579102 -36.98782227 158.27211914 -37.28930664 159.08227539 C-37.73209961 160.27336914 -37.73209961 160.27336914 -38.18383789 161.48852539 C-38.4790332 162.27485352 -38.77422852 163.06118164 -39.07836914 163.87133789 C-41.19732081 169.58410628 -42.92478568 175.25001802 -44.68383789 181.11352539 C-53.26383789 181.11352539 -61.84383789 181.11352539 -70.68383789 181.11352539 C-70.00237408 177.0247425 -69.48977691 174.18804375 -68.04711914 170.49633789 C-67.72018066 169.65031006 -67.39324219 168.80428223 -67.05639648 167.93261719 C-66.70657715 167.04356689 -66.35675781 166.1545166 -65.99633789 165.23852539 C-65.2655109 163.35194538 -64.53504533 161.46522532 -63.80493164 159.57836914 C-63.26328369 158.18593994 -63.26328369 158.18593994 -62.71069336 156.76538086 C-61.29939233 153.12069426 -59.92518165 149.46275286 -58.55883789 145.80102539 C-58.20088135 144.84558838 -58.20088135 144.84558838 -57.83569336 143.87084961 C-56.60310556 140.58031781 -55.37711809 137.28741969 -54.15649414 133.99243164 C-51.93410199 128.00819982 -49.6914951 122.04859004 -47.18383789 116.17602539 C-44.85593866 110.6845708 -42.87684841 105.10208741 -40.91650391 99.47241211 C-37.95925095 90.99299038 -34.76658273 82.62601088 -31.24633789 74.36352539 C-28.90558813 68.80883082 -26.89860978 63.1675737 -24.91894531 57.47753906 C-21.05001635 46.37631546 -16.68453031 35.46481523 -12.24243164 24.58227539 C-9.38868017 17.55876577 -6.73191797 10.54415856 -4.44555664 3.30883789 C-3.34658996 0.14155957 -3.34658996 0.14155957 0 0 Z " fill="#040505" transform="translate(636.683837890625,266.886474609375)"/>
<path d="M0 0 C11.91437766 10.97151324 15.6279975 27.05286636 16.35761261 42.60654831 C16.52141891 48.60055614 16.48033201 54.59434661 16.4453125 60.58984375 C16.44157239 62.4965449 16.43873015 64.403248 16.43673706 66.30995178 C16.42917904 71.27629098 16.40959992 76.24250918 16.3873291 81.20880127 C16.36669984 86.29738733 16.35769919 91.38599336 16.34765625 96.47460938 C16.32634492 106.42063405 16.29122876 116.36653793 16.25 126.3125 C8.66 126.3125 1.07 126.3125 -6.75 126.3125 C-7.245 117.4025 -7.245 117.4025 -7.75 108.3125 C-9.131875 109.88 -10.51375 111.4475 -11.9375 113.0625 C-20.72322833 123.02840079 -30.97556321 128.60420833 -44.37939453 129.48535156 C-47.37934189 129.60532929 -50.37279807 129.66163753 -53.375 129.6875 C-54.34058838 129.70135742 -55.30617676 129.71521484 -56.30102539 129.72949219 C-68.51480215 129.6503375 -79.7186491 125.7536595 -88.4375 116.9375 C-97.08906764 106.06124354 -100.35392238 94.08088816 -99.02587891 80.39746094 C-97.51569251 68.98419384 -92.94531107 59.71271122 -84.3125 52.125 C-67.5782422 39.53661688 -47.86514523 40.01746616 -27.9375 40.1875 C-25.87695749 40.19755222 -23.81641021 40.20667409 -21.75585938 40.21484375 C-16.75378682 40.23667419 -11.75194713 40.27107997 -6.75 40.3125 C-6.8650588 38.42254562 -6.9925019 36.53334313 -7.125 34.64453125 C-7.22941406 33.0663562 -7.22941406 33.0663562 -7.3359375 31.45629883 C-8.25684053 24.46427738 -11.41436231 19.06254256 -16.6875 14.4375 C-29.8313308 5.36761349 -48.14560343 5.29799357 -63.3984375 8.04296875 C-70.50847248 9.58321522 -77.13370784 12.06501302 -83.61328125 15.359375 C-85.75 16.3125 -85.75 16.3125 -88.75 16.3125 C-88.75 9.7125 -88.75 3.1125 -88.75 -3.6875 C-60.34489399 -14.58260916 -25.8030487 -19.80897766 0 0 Z " fill="#070808" transform="translate(1351.75,321.6875)"/>
<path d="M0 0 C1.31943604 0.00491455 2.63887207 0.0098291 3.99829102 0.01489258 C22.75439212 0.23912406 51.21021682 3.14771682 65.375 17.3125 C65.46248207 19.23917507 65.48197334 21.16901861 65.47265625 23.09765625 C65.46943359 24.26748047 65.46621094 25.43730469 65.46289062 26.64257812 C65.45451172 27.87427734 65.44613281 29.10597656 65.4375 30.375 C65.43298828 31.61056641 65.42847656 32.84613281 65.42382812 34.11914062 C65.41199608 37.18364117 65.39551173 40.24804721 65.375 43.3125 C64.49457031 42.72339844 63.61414062 42.13429688 62.70703125 41.52734375 C57.97870199 38.37651044 53.19634236 35.31906743 48.375 32.3125 C47.6428125 31.84328125 46.910625 31.3740625 46.15625 30.890625 C39.65554085 26.96109185 32.72102076 25.08567743 25.375 23.3125 C24.45332031 23.08433594 23.53164062 22.85617187 22.58203125 22.62109375 C2.42442437 18.46158757 -18.99347879 20.45908455 -36.625 31.3125 C-51.09362934 41.8027511 -57.51919721 56.99887757 -60.33935547 74.16326904 C-61.11395664 79.9914808 -61.065739 85.86932983 -61.01611328 91.73852539 C-60.99993424 94.00922978 -61.0161182 96.2781748 -61.03515625 98.54882812 C-61.04747923 107.23269397 -60.24167454 114.95997488 -57.625 123.3125 C-57.30917969 124.44945312 -56.99335937 125.58640625 -56.66796875 126.7578125 C-52.0205831 141.31537668 -44.06407891 152.53027701 -30.50390625 159.87890625 C-19.41660405 165.39999161 -8.2544733 166.68720694 4.0625 166.625 C5.20009766 166.62081055 6.33769531 166.61662109 7.50976562 166.61230469 C19.47037051 166.45269412 30.54061823 165.06636429 41.5546875 160.08203125 C43.375 159.3125 43.375 159.3125 45.375 159.3125 C45.375 143.1425 45.375 126.9725 45.375 110.3125 C32.175 110.3125 18.975 110.3125 5.375 110.3125 C5.375 103.3825 5.375 96.4525 5.375 89.3125 C26.825 89.3125 48.275 89.3125 70.375 89.3125 C70.8161969 108.49788047 70.8161969 108.49788047 70.91210938 116.69726562 C70.97779144 122.28575993 71.05534389 127.87226588 71.20483398 133.45922852 C71.32465578 137.96576042 71.39018248 142.47016061 71.41864967 146.97816277 C71.43892466 148.69481925 71.47852408 150.41136302 71.53803062 152.12710762 C71.98597186 165.58177913 71.98597186 165.58177913 67.96691895 169.89958191 C65.15960671 171.70952979 62.46485768 173.05984787 59.375 174.3125 C57.77011719 175.23095703 57.77011719 175.23095703 56.1328125 176.16796875 C49.07546745 179.73852463 42.00007859 182.23566938 34.375 184.3125 C33.24578125 184.63541016 33.24578125 184.63541016 32.09375 184.96484375 C22.33665678 187.61706949 12.34830321 187.5536758 2.3125 187.5625 C1.62280121 187.56317474 0.93310242 187.56384949 0.22250366 187.56454468 C-14.98089896 187.54091187 -27.7462016 185.95018619 -41.625 179.3125 C-42.35074219 178.99410156 -43.07648438 178.67570313 -43.82421875 178.34765625 C-59.71925655 171.07153875 -70.55332852 157.29554018 -78.625 142.3125 C-79.14835937 141.38566406 -79.67171875 140.45882812 -80.2109375 139.50390625 C-82.14439034 135.1402848 -83.18068198 130.70281213 -84.25 126.0625 C-84.4665625 125.17175781 -84.683125 124.28101563 -84.90625 123.36328125 C-91.72150426 94.3774159 -89.07753638 61.4466261 -73.42626953 35.76025391 C-65.85424623 24.11931159 -55.77760406 15.84998607 -43.625 9.3125 C-42.87347656 8.89484375 -42.12195312 8.4771875 -41.34765625 8.046875 C-28.37081756 1.16015665 -14.48822879 -0.06394728 0 0 Z " fill="#060707" transform="translate(1148.625,263.6875)"/>
<path d="M0 0 C11.45427759 9.79914389 16.05105277 21.95421106 19.625 36.25 C19.625 45.16 19.625 54.07 19.625 63.25 C-14.035 63.25 -47.695 63.25 -82.375 63.25 C-77.9435559 86.06051591 -77.9435559 86.06051591 -62.8125 102.8125 C-47.02799333 112.1785249 -25.89069634 111.28852417 -8.52441406 107.10375977 C-2.45522106 105.47370363 3.2286893 103.10275968 8.90234375 100.421875 C11.625 99.25 11.625 99.25 14.625 99.25 C14.625 105.85 14.625 112.45 14.625 119.25 C-8.32763095 129.70942676 -37.55163559 134.05504947 -61.98046875 126.5625 C-78.41928858 120.20640856 -91.08339203 109.83415357 -98.578125 93.65234375 C-99.59131704 91.20631669 -100.50391279 88.74981771 -101.375 86.25 C-101.66246094 85.46496094 -101.94992187 84.67992187 -102.24609375 83.87109375 C-109.00600327 64.75575152 -106.62218632 40.53967851 -98.375 22.25 C-93.06765382 11.63530765 -85.29532038 2.76729987 -75.375 -3.75 C-74.323125 -4.45125 -73.27125 -5.1525 -72.1875 -5.875 C-49.71044966 -18.25291482 -20.07460988 -14.96358958 0 0 Z " fill="#040505" transform="translate(1646.375,321.75)"/>
<path d="M0 0 C7.59 0 15.18 0 23 0 C25.57314447 5.14628895 27.64600101 9.4875947 29.4375 14.8125 C31.28160216 20.11358877 33.37711296 25.16280995 35.75390625 30.2421875 C38.66540668 36.68582168 41.03061603 43.36360798 43.47265625 49.99609375 C46.02040134 56.89480493 48.67349499 63.64478865 51.7890625 70.3125 C54.10177605 75.44523201 56.02780715 80.72928577 58 86 C58.54929572 87.46100648 59.09878369 88.9219407 59.6484375 90.3828125 C61.1034085 94.25355242 62.55295341 98.12629108 64 102 C64.99 102 65.98 102 67 102 C67.3403125 101.07703125 67.680625 100.1540625 68.03125 99.203125 C70.79818481 91.74057916 73.64804404 84.31885543 76.625 76.9375 C79.77932219 69.11309252 82.84383445 61.25619241 85.87554932 53.38360596 C92.75361081 35.52327606 99.85929086 17.75670425 107 0 C114.92 0 122.84 0 131 0 C130.25644675 2.974213 129.46848386 5.49992069 128.328125 8.30859375 C127.82998291 9.54283081 127.82998291 9.54283081 127.32177734 10.80200195 C126.79124756 12.10657349 126.79124756 12.10657349 126.25 13.4375 C125.5175588 15.25233376 124.78578731 17.06743795 124.0546875 18.8828125 C123.52246582 20.20394043 123.52246582 20.20394043 122.97949219 21.55175781 C121.34301206 25.64214234 119.77688399 29.75873062 118.20703125 33.875 C116.61419323 37.99885248 114.95700668 42.09620381 113.30249023 46.19555664 C111.43362011 50.85189406 109.67312067 55.54261725 107.9375 60.25 C105.92849298 65.69068191 103.69146396 70.95982257 101.22265625 76.20703125 C99.28914491 80.62383831 97.76138555 85.17538548 96.2109375 89.73828125 C95.01215885 92.96724956 93.53901467 95.92197065 92 99 C91.13373161 101.30036514 90.30114915 103.61365389 89.5 105.9375 C87.40594728 111.99817181 84.96791187 117.84134086 82.3515625 123.69140625 C79.50458383 130.06130622 76.79852886 136.38287054 74.5625 143 C71.76842571 151.05134565 68.00295589 158.49625115 64 166 C63.48308594 166.98613281 62.96617188 167.97226562 62.43359375 168.98828125 C57.87722193 177.16988624 52.04931957 183.03556773 43 186 C35.90315567 187.81208026 29.17657589 188.25831529 21.875 188.125 C20.91851563 188.11597656 19.96203125 188.10695313 18.9765625 188.09765625 C16.65093013 188.07439993 14.32542925 188.03854303 12 188 C12 181.73 12 175.46 12 169 C20.5625 168.6875 20.5625 168.6875 23.21704102 168.61206055 C29.62283637 168.31473905 34.35466919 167.00012817 39.5625 163.0625 C43.2360272 158.44704275 45.55180455 153.34384177 48 148 C48.50402344 146.94296875 49.00804687 145.8859375 49.52734375 144.796875 C53.04556645 137.14562817 53.04556645 137.14562817 52 129 C50.87508999 126.37669207 49.68520834 123.7954443 48.45703125 121.21875 C46.79800636 117.55377277 45.38611598 113.83705537 44 110.0625 C40.79515834 101.37531607 37.33100882 92.84178123 33.4375 84.4375 C31.36812177 79.94417718 29.66752554 75.39310243 28.0234375 70.73046875 C27.00772532 68.02061068 25.8543201 65.43165653 24.625 62.8125 C22.53016102 58.32172897 20.76048944 53.77493802 19.0625 49.125 C17.23813831 44.13813833 15.28166216 39.30161801 13 34.5 C10.3841136 28.99431239 8.2104149 23.4083089 6.12255859 17.6887207 C4.49731807 13.25373313 2.71901083 8.95112404 0.6640625 4.69921875 C0 3 0 3 0 0 Z " fill="#050606" transform="translate(1789,312)"/>
<path d="M0 0 C11.78764601 7.00664273 17.91048969 17.22081323 21.3203125 30.23828125 C25.24724447 48.33248393 24.06469704 70.00225439 14.19873047 86.05371094 C10.18768228 92.04184218 5.74323949 96.29044467 -0.6875 99.5 C-1.28691406 99.83515625 -1.88632812 100.1703125 -2.50390625 100.515625 C-9.59419138 103.88465897 -18.9068333 103.72990989 -26.375 101.80859375 C-28.63641915 100.87026184 -30.61883518 99.80716813 -32.6875 98.5 C-33.38359375 98.07589844 -34.0796875 97.65179688 -34.796875 97.21484375 C-44.03510948 90.98077198 -49.8534939 80.06408734 -52.44140625 69.390625 C-55.55645474 50.83103537 -55.86141293 27.60525716 -44.6875 11.5 C-33.52982142 -2.24785397 -16.66454516 -7.72879159 0 0 Z " fill="#FCFCFC" transform="translate(988.6875,330.5)"/>
<path d="M0 0 C10.49369087 6.69327309 17.30336208 16.24429933 20.16796875 28.3828125 C22.80726828 44.84570824 23.86358972 65.19462124 16.16796875 80.3828125 C15.71035156 81.32640625 15.25273438 82.27 14.78125 83.2421875 C10.29670425 91.54781196 3.61934878 97.31362952 -4.83203125 101.3828125 C-14.47277483 104.07325257 -25.0291477 103.06182268 -33.83203125 98.3828125 C-45.72601929 90.24087116 -50.37534958 78.38093705 -53.421875 64.7421875 C-55.70029666 46.08082915 -55.22505974 25.81702766 -44.15234375 9.98046875 C-33.74110204 -3.00118326 -15.22910718 -7.49660009 0 0 Z " fill="#FCFCFC" transform="translate(831.83203125,330.6171875)"/>
<path d="M0 0 C7.59 0 15.18 0 23 0 C23 62.37 23 124.74 23 189 C15.41 189 7.82 189 0 189 C0 126.63 0 64.26 0 0 Z " fill="#0B0B0B" transform="translate(1482,259)"/>
<path d="M0 0 C5.48617962 -0.06826694 10.31405097 0.17343558 15.765625 1.08203125 C15.765625 8.67203125 15.765625 16.26203125 15.765625 24.08203125 C12.465625 23.09203125 9.165625 22.10203125 5.765625 21.08203125 C2.81103234 20.81319231 0.13708131 20.6482222 -2.796875 20.70703125 C-3.53139893 20.71573242 -4.26592285 20.72443359 -5.02270508 20.73339844 C-14.67665781 20.99434498 -21.49146856 23.91752804 -28.796875 30.33203125 C-40.22796317 43.22864354 -40.83611925 58.42427669 -40.84375 74.82421875 C-40.85876472 76.68752454 -40.87549864 78.5508172 -40.89385986 80.41409302 C-40.93717654 85.27025024 -40.95745245 90.12622808 -40.97259521 94.98254395 C-40.99229629 99.95721897 -41.0342508 104.93170383 -41.07421875 109.90625 C-41.14913361 119.63148345 -41.19759621 129.35657875 -41.234375 139.08203125 C-48.494375 139.08203125 -55.754375 139.08203125 -63.234375 139.08203125 C-63.234375 94.20203125 -63.234375 49.32203125 -63.234375 3.08203125 C-55.974375 3.08203125 -48.714375 3.08203125 -41.234375 3.08203125 C-40.904375 9.35203125 -40.574375 15.62203125 -40.234375 22.08203125 C-39.265 20.74140625 -38.295625 19.40078125 -37.296875 18.01953125 C-29.92705236 8.63037721 -19.84281114 1.88302361 -7.796875 0.26953125 C-5.19818988 0.10355684 -2.60341138 0.06602855 0 0 Z " fill="#040505" transform="translate(1765.234375,308.91796875)"/>
<path d="M0 0 C7.26 0 14.52 0 22 0 C22 62.37 22 124.74 22 189 C14.74 189 7.48 189 0 189 C0 126.63 0 64.26 0 0 Z " fill="#040505" transform="translate(1414,259)"/>
<path d="M0 0 C45.58695652 0 45.58695652 0 55 9 C60.97911726 16.17494072 60.63733697 24.12280651 60 33 C58.06813991 41.27441281 52.79426665 45.4704889 46 50 C46.50789062 50.38929688 47.01578125 50.77859375 47.5390625 51.1796875 C57.16384192 59.00207377 61.68495413 70.08689003 67.01660156 81.00878906 C67.70984345 82.41248341 68.41618426 83.8097459 69.13183594 85.20214844 C69.49825195 85.91661133 69.86466797 86.63107422 70.2421875 87.3671875 C70.57847168 88.0154248 70.91475586 88.66366211 71.26123047 89.33154297 C72 91 72 91 72 93 C69.89758397 93.13496251 67.7927039 93.23197307 65.6875 93.3125 C64.51574219 93.37050781 63.34398437 93.42851562 62.13671875 93.48828125 C59 93 59 93 57.31640625 90.98828125 C56.88199219 90.00214844 56.44757813 89.01601562 56 88 C55.40166762 86.72626827 54.80265721 85.45285492 54.203125 84.1796875 C53.88794922 83.48456055 53.57277344 82.78943359 53.24804688 82.07324219 C46.37745502 65.70156669 46.37745502 65.70156669 33 55 C29.48455016 54.31991975 26.07366615 54.21210304 22.5 54.1875 C17.7975 54.0946875 17.7975 54.0946875 13 54 C13 67.2 13 80.4 13 94 C8.71 94 4.42 94 0 94 C0 62.98 0 31.96 0 0 Z " fill="#0B0B0B" transform="translate(977,110)"/>
<path d="M0 0 C45.89896907 0 45.89896907 0 54.921875 8.89453125 C61.23585945 16.75694522 60.7146546 26.27667124 60 36 C58.44147316 42.89314155 55.83057527 47.07328605 50 51 C49.236875 51.556875 48.47375 52.11375 47.6875 52.6875 C40.15617113 56.36559084 32.15349392 56.25870884 23.9375 56.125 C20.328125 56.08375 16.71875 56.0425 13 56 C13 68.54 13 81.08 13 94 C8.71 94 4.42 94 0 94 C0 62.98 0 31.96 0 0 Z " fill="#0B0C0C" transform="translate(732,110)"/>
<path d="M0 0 C5.61 0 11.22 0 17 0 C23.86942085 12.46397622 30.58911055 24.99065822 37.11938477 37.63574219 C41.34404607 45.79397185 45.69903883 53.87447064 50.13085938 61.921875 C50.59556641 62.76621094 51.06027344 63.61054688 51.5390625 64.48046875 C51.94334473 65.21160889 52.34762695 65.94274902 52.76416016 66.69604492 C54.23295256 69.43428947 55.61037168 72.22074336 57 75 C57.33 50.25 57.66 25.5 58 0 C62.29 0 66.58 0 71 0 C71 31.02 71 62.04 71 94 C65.06 94 59.12 94 53 94 C52.34515625 92.66710937 51.6903125 91.33421875 51.015625 89.9609375 C45.77209924 79.34839157 40.36060466 68.86331351 34.64160156 58.49926758 C30.07426816 50.20046714 25.70082928 41.80659003 21.36376953 33.38549805 C20.85185059 32.39332275 20.33993164 31.40114746 19.8125 30.37890625 C19.36519531 29.5082251 18.91789062 28.63754395 18.45703125 27.74047852 C16.70992243 24.45440337 14.8464555 21.23129713 13 18 C12.67 42.75 12.34 67.5 12 93 C8.04 93 4.08 93 0 93 C0 62.31 0 31.62 0 0 Z " fill="#0A0B0B" transform="translate(1445,110)"/>
<path d="M0 0 C0.94746094 -0.02900391 1.89492187 -0.05800781 2.87109375 -0.08789062 C15.18477783 -0.19738303 23.52447929 4.93062658 32.31640625 13.12109375 C42.67842175 23.88595218 43.77816298 37.31229247 43.58984375 51.46875 C43.15750857 65.23902836 38.46775955 76.99291628 29.05078125 87.04296875 C18.12446162 96.3104019 5.4209715 97.14002844 -8.19335938 96.53466797 C-18.21893433 95.61867668 -26.06326248 89.76788086 -32.33984375 82.26171875 C-43.36683413 67.94550385 -43.98275385 52.9024573 -42.625 35.3125 C-41.86783405 30.8911917 -40.69473366 27.28051009 -38.625 23.3125 C-38.12742187 22.3534375 -37.62984375 21.394375 -37.1171875 20.40625 C-31.70170168 11.03620012 -23.33769811 3.86510793 -12.81420898 0.78198242 C-8.59880212 -0.1220242 -4.29546728 0.04278354 0 0 Z M-22.09765625 19.8046875 C-30.51978072 30.1584919 -30.89612007 44.6263323 -29.625 57.3125 C-27.9653996 66.74963599 -24.14328702 75.84629761 -16.53515625 82.00390625 C-9.01439875 86.91970864 -1.4860157 87.13633497 7.375 86.3125 C15.8350941 83.86923396 21.38001513 78.41252535 25.76025391 70.95361328 C29.48437588 63.46697632 30.10996653 57.10021603 29.9375 48.8125 C29.95393555 47.09353516 29.95393555 47.09353516 29.97070312 45.33984375 C29.88038145 34.75414343 27.69105542 25.81970277 20.2421875 18.03515625 C13.14784403 11.48995652 7.91623827 10.04101502 -1.59375 10.16796875 C-10.23622955 10.58004574 -16.06219504 13.68918038 -22.09765625 19.8046875 Z " fill="#080909" transform="translate(1381.625,108.6875)"/>
<path d="M0 0 C10.24297177 7.58684299 17.71484739 17.28484917 20 30 C21.56527341 46.97647234 20.65170796 62.92523041 9.86328125 76.85546875 C2.22272462 85.64931695 -6.34356817 90.61750677 -18.0859375 91.48046875 C-31.15902054 92.01891048 -41.07583774 90.39259973 -51.375 81.8125 C-58.7301915 74.68162413 -62.59424007 66.86534647 -65 57 C-65.17273438 56.390354 -65.34546875 55.78070801 -65.5234375 55.15258789 C-66.4210762 51.09803848 -66.18462591 46.94832075 -66.1875 42.8125 C-66.20586914 41.4502832 -66.20586914 41.4502832 -66.22460938 40.06054688 C-66.25330781 26.69664445 -62.51621058 15.27027319 -53.0625 5.5 C-39.65319124 -7.02606088 -15.83689025 -10.45234756 0 0 Z M-43.40234375 12.00390625 C-52.70959359 23.63227952 -54.31797917 37.67301865 -53 52 C-50.76138416 63.01156979 -45.4658341 72.66662094 -36 79 C-28.89093741 81.96375047 -19.26183756 82.72296706 -12 79.75 C-10.515 78.88375 -10.515 78.88375 -9 78 C-7.989375 77.46375 -6.97875 76.9275 -5.9375 76.375 C1.67633635 70.21913232 5.26225164 61.4697523 7 52 C8.28825918 39.36621366 7.62106657 26.39302205 0.3125 15.5625 C-3.93580384 10.49886512 -9.06319934 6.73420016 -15.5 5.125 C-17.2325 5.063125 -17.2325 5.063125 -19 5 C-19.68707031 4.95101562 -20.37414062 4.90203125 -21.08203125 4.8515625 C-29.25834118 4.47926117 -37.33260162 6.24984811 -43.40234375 12.00390625 Z " fill="#080909" transform="translate(937,114)"/>
<path d="M0 0 C0.66 0 1.32 0 2 0 C2.35191406 1.01835937 2.70382812 2.03671875 3.06640625 3.0859375 C5.75953638 10.82417957 8.55001797 18.50494944 11.5625 26.125 C14.22738026 32.87437644 16.6354334 39.66356428 18.859375 46.5703125 C20.6831856 52.05423614 22.75047224 57.42084535 24.9375 62.76953125 C25.27523437 63.59646484 25.61296875 64.42339844 25.9609375 65.27539062 C26.64953789 66.95676638 27.34220115 68.63648435 28.0390625 70.31445312 C30.5710751 76.54301084 32.20170734 82.40626026 34 89 C12.22 89 -9.56 89 -32 89 C-30.25703546 83.19011821 -28.5545801 77.55143606 -26.5 71.875 C-26.06816406 70.68003906 -25.63632812 69.48507812 -25.19140625 68.25390625 C-24.05350316 65.14612502 -22.90459625 62.04346636 -21.73046875 58.94921875 C-20.88096794 56.68236898 -20.06704069 54.40375061 -19.25 52.125 C-18.04769973 48.79939208 -16.80853679 45.49358641 -15.50390625 42.20703125 C-11.35153431 31.7365789 -7.57175886 21.16790609 -3.93286133 10.50756836 C-3.56572021 9.4325708 -3.1985791 8.35757324 -2.8203125 7.25 C-2.49305176 6.28578125 -2.16579102 5.3215625 -1.82861328 4.328125 C-1 2 -1 2 0 0 Z " fill="#FAFAFA" transform="translate(647,292)"/>
<path d="M0 0 C1.5787746 0.00503053 3.15755078 0.00959066 4.73632812 0.01367188 C8.5534252 0.02454184 12.37044455 0.04171864 16.1875 0.0625 C16.21638893 2.59773925 16.23736275 5.13264307 16.25390625 7.66796875 C16.26280884 8.3782019 16.27171143 9.08843506 16.28088379 9.82019043 C16.34333251 22.61483128 12.08048623 32.46796779 3.5625 42 C2.77875 42.680625 1.995 43.36125 1.1875 44.0625 C0.07375 45.0834375 0.07375 45.0834375 -1.0625 46.125 C-10.19911634 52.56216151 -19.83451461 53.85370615 -30.8125 53.0625 C-39.31635682 51.30218869 -45.7672245 47.20997362 -50.8125 40.0625 C-53.54513078 32.16288778 -54.79914937 22.14558217 -51.6796875 14.1640625 C-47.28578824 7.23964534 -41.55455298 3.79329383 -33.73803711 1.70336914 C-22.78001937 -0.6970979 -11.16371794 -0.06265774 0 0 Z " fill="#FCFCFC" transform="translate(1328.8125,379.9375)"/>
<path d="M0 0 C19.47 0 38.94 0 59 0 C59 3.63 59 7.26 59 11 C43.82 11 28.64 11 13 11 C13 19.91 13 28.82 13 38 C27.52 38 42.04 38 57 38 C57 41.63 57 45.26 57 49 C42.15 49 27.3 49 12 49 C12 60.22 12 71.44 12 83 C27.84 83 43.68 83 60 83 C60 86.63 60 90.26 60 94 C40.2 94 20.4 94 0 94 C0 62.98 0 31.96 0 0 Z " fill="#0A0B0B" transform="translate(1066,110)"/>
<path d="M0 0 C19.47 0 38.94 0 59 0 C59 3.63 59 7.26 59 11 C43.82 11 28.64 11 13 11 C13 19.91 13 28.82 13 38 C27.52 38 42.04 38 57 38 C57 41.63 57 45.26 57 49 C42.15 49 27.3 49 12 49 C12 60.22 12 71.44 12 83 C27.84 83 43.68 83 60 83 C60 86.63 60 90.26 60 94 C40.2 94 20.4 94 0 94 C0 62.98 0 31.96 0 0 Z " fill="#0B0C0C" transform="translate(564,110)"/>
<path d="M0 0 C0.82113281 -0.020625 1.64226562 -0.04125 2.48828125 -0.0625 C12.50575198 -0.12600219 21.03758634 3.76956253 28.2890625 10.7265625 C36.33521471 19.95742424 37.75 27.97059822 37.75 40.25 C11.68 40.25 -14.39 40.25 -41.25 40.25 C-41.25 28.23873471 -37.46169568 19.62577821 -29.1796875 11.125 C-20.40312608 2.80714388 -11.82733353 0.07289574 0 0 Z " fill="#FAFAFA" transform="translate(1606.25,327.75)"/>
<path d="M0 0 C4.4965337 -0.67859274 8.51773373 -0.86217405 13 0 C16.09768094 2.46240336 17.80788799 5.52773057 19.76123047 8.93457031 C21.28126131 11.46895362 22.93153944 13.89515124 24.59765625 16.3359375 C29.74753582 23.88965483 29.74753582 23.88965483 32.21875 27.59765625 C32.75435547 28.39695557 33.28996094 29.19625488 33.84179688 30.01977539 C35 32 35 32 35 34 C35.66 34 36.32 34 37 34 C37.22429688 33.33097656 37.44859375 32.66195312 37.6796875 31.97265625 C39.39276644 28.1156945 41.69538341 24.87472915 44.125 21.4375 C45.11532845 20.01874899 46.1049046 18.59947257 47.09375 17.1796875 C47.58359375 16.47811523 48.0734375 15.77654297 48.578125 15.05371094 C51.29419853 11.13070089 53.91222102 7.14330568 56.5390625 3.16015625 C58 1 58 1 59 0 C61.18639453 -0.07258946 63.37500389 -0.08373783 65.5625 -0.0625 C67.35880859 -0.04896484 67.35880859 -0.04896484 69.19140625 -0.03515625 C70.11824219 -0.02355469 71.04507813 -0.01195313 72 0 C70.31615931 5.22173924 67.14777704 9.38690152 64.046875 13.84375 C62.85856046 15.58147452 61.67108531 17.31977329 60.484375 19.05859375 C58.6138349 21.78999622 56.73806081 24.51716412 54.84765625 27.23486328 C53.0223026 29.86426434 51.22051008 32.50852715 49.421875 35.15625 C48.84910828 35.96783569 48.27634155 36.77942139 47.68621826 37.61560059 C44.68020033 41.77215193 44.68020033 41.77215193 44.39086914 46.63623047 C44.92188232 47.41627441 45.45289551 48.19631836 46 49 C46.96619263 50.55775146 46.96619263 50.55775146 47.9519043 52.14697266 C48.73801553 53.32246589 49.52906502 54.49466704 50.32421875 55.6640625 C50.74870804 56.2967807 51.17319733 56.9294989 51.61054993 57.58139038 C52.96517595 59.5988987 54.32601386 61.61211629 55.6875 63.625 C59.13605719 68.74261644 62.57660011 73.86551598 66 79 C66.72783691 80.09151367 67.45567383 81.18302734 68.20556641 82.30761719 C68.8454248 83.28633789 69.4852832 84.26505859 70.14453125 85.2734375 C70.70116455 86.12083496 71.25779785 86.96823242 71.83129883 87.84130859 C73 90 73 90 73 93 C71.15421295 93.27277641 69.29648978 93.46533217 67.4375 93.625 C66.40496094 93.74101562 65.37242187 93.85703125 64.30859375 93.9765625 C58.79594412 92.34945222 56.93745024 87.70394275 54 83 C52.87087023 81.30821527 51.7257468 79.62803075 50.57899475 77.94815063 C48.96577607 75.58139644 47.37393877 73.20058541 45.78149414 70.81982422 C44.95832607 69.5909248 44.1330775 68.36341681 43.3059082 67.13720703 C42.09661464 65.34441809 40.89333469 63.5477323 39.69140625 61.75 C38.62708374 60.16445312 38.62708374 60.16445312 37.54125977 58.546875 C36 56 36 56 36 54 C35.34 54 34.68 54 34 54 C33.76837158 54.66153076 33.53674316 55.32306152 33.2980957 56.00463867 C30.53996168 62.3690446 26.50908416 68.10276913 22.73657227 73.90356445 C21.70548133 75.50699618 20.69227746 77.12207484 19.69750977 78.74829102 C11.37811782 92.32420735 11.37811782 92.32420735 5.33837891 94.04052734 C2.05051614 94.04275701 -0.81094171 93.77461913 -4 93 C-2.77533862 89.72511473 -1.42064924 86.88915488 0.5390625 83.99609375 C1.2801123 82.89418701 1.2801123 82.89418701 2.03613281 81.77001953 C2.56045898 81.00028809 3.08478516 80.23055664 3.625 79.4375 C4.71615088 77.81901382 5.80729671 76.20052423 6.8984375 74.58203125 C7.43049805 73.79650879 7.96255859 73.01098633 8.51074219 72.20166016 C11.06702155 68.42255732 13.58859316 64.62057676 16.11328125 60.8203125 C17.47393876 58.78636897 18.84802131 56.76138393 20.23046875 54.7421875 C21.32294922 53.13730469 21.32294922 53.13730469 22.4375 51.5 C23.09621094 50.5409375 23.75492188 49.581875 24.43359375 48.59375 C25.88960265 46.1828026 26.66528039 44.75604895 27 42 C26.12516494 39.92395465 26.12516494 39.92395465 24.63500977 37.90576172 C24.09437393 37.11168915 23.5537381 36.31761658 22.99671936 35.4994812 C22.10308937 34.22743332 22.10308937 34.22743332 21.19140625 32.9296875 C20.59069809 32.05224884 19.98998993 31.17481018 19.37107849 30.27078247 C17.44669926 27.46384252 15.50556003 24.66903348 13.5625 21.875 C11.6258289 19.07201805 9.69277344 16.26665127 7.76463318 13.45779419 C6.56276755 11.70887436 5.35541441 9.96371111 4.14222717 8.22262573 C3.59843918 7.43485748 3.05465118 6.64708923 2.49438477 5.83544922 C2.01171646 5.14135956 1.52904816 4.4472699 1.03175354 3.73214722 C0 2 0 2 0 0 Z " fill="#090909" transform="translate(641,110)"/>
<path d="M0 0 C31.68 0 63.36 0 96 0 C96 31.02 96 62.04 96 94 C95.67 94 95.34 94 95 94 C94.84144531 92.80246094 94.68289063 91.60492188 94.51953125 90.37109375 C90.74017116 63.37765534 79.99444246 38.78459242 58.0390625 21.6953125 C39.99439225 8.71887893 21.84183646 3.53052777 0 1 C0 0.67 0 0.34 0 0 Z " fill="#47704C" transform="translate(1904,0)"/>
<path d="M0 0 C31.68 0 63.36 0 96 0 C96 0.33 96 0.66 96 1 C95.41734375 1.05945801 94.8346875 1.11891602 94.234375 1.18017578 C81.32202683 2.5582035 69.86049817 4.6660522 58 10 C56.94683594 10.45246094 55.89367188 10.90492187 54.80859375 11.37109375 C32.33082247 21.71614364 16.01140486 41.124587 7.3984375 64 C3.89351519 73.79711442 2.29517194 83.69957376 1 94 C0.67 94 0.34 94 0 94 C0 62.98 0 31.96 0 0 Z " fill="#47704C" transform="translate(0,0)"/>
<path d="M0 0 C0.33 0 0.66 0 1 0 C1 31.02 1 62.04 1 94 C-30.02 94 -61.04 94 -93 94 C-93 93.67 -93 93.34 -93 93 C-91.20369141 92.76216797 -91.20369141 92.76216797 -89.37109375 92.51953125 C-62.37765534 88.74017116 -37.78459242 77.99444246 -20.6953125 56.0390625 C-8.21728857 38.68746694 -2.73733577 20.9862409 0 0 Z " fill="#47704C" transform="translate(1999,507)"/>
<path d="M0 0 C0.33 0 0.66 0 1 0 C1.15855469 1.19753906 1.31710938 2.39507812 1.48046875 3.62890625 C4.47246783 25.02589822 11.32132676 43.75370146 26 60 C26.67417969 60.75539063 27.34835938 61.51078125 28.04296875 62.2890625 C45.55100598 80.84949541 69.15266825 89.32351893 94 92 C94 92.33 94 92.66 94 93 C62.98 93 31.96 93 0 93 C0 62.31 0 31.62 0 0 Z " fill="#47704C" transform="translate(0,508)"/>
<path d="M0 0 C26.07 0 52.14 0 79 0 C79 3.63 79 7.26 79 11 C68.11 11 57.22 11 46 11 C46 38.39 46 65.78 46 94 C41.71 94 37.42 94 33 94 C33 66.61 33 39.22 33 11 C22.11 11 11.22 11 0 11 C0 7.37 0 3.74 0 0 Z " fill="#0C0D0D" transform="translate(1212,110)"/>
<path d="M0 0 C3.63 0 7.26 0 11 0 C12.26931815 3.73337866 13.53252328 7.46876575 14.7902832 11.20605469 C15.42798063 13.09677584 16.07040055 14.98590207 16.71289062 16.875 C17.11572266 18.07382812 17.51855469 19.27265625 17.93359375 20.5078125 C18.4913147 22.15740967 18.4913147 22.15740967 19.06030273 23.84033203 C19.96745874 26.89058224 20.55011872 29.85290426 21 33 C21.66 33 22.32 33 23 33 C23.08636719 32.44054687 23.17273438 31.88109375 23.26171875 31.3046875 C24.41774473 24.70791539 26.43974299 18.63852859 28.7578125 12.36328125 C30.26922597 8.271058 31.64208134 4.14522539 33 0 C35.64 0 38.28 0 41 0 C43.88865533 5.30768265 45.74734721 10.83008969 47.625 16.5625 C47.93695313 17.49513672 48.24890625 18.42777344 48.5703125 19.38867188 C49.9567868 23.58096377 51.19823977 27.65124866 52 32 C54.84474084 26.85237371 56.41245363 21.62256005 58 16 C59.58754637 10.37743995 61.15525916 5.14762629 64 0 C67.3 0 70.6 0 74 0 C72.58543785 6.01941341 71.17136548 11.93444208 68.87890625 17.68359375 C67.66657011 20.87877301 66.62439545 24.12762679 65.5625 27.375 C63.59706517 33.34965578 61.41725546 39.19436461 59 45 C58.33131117 46.66585638 57.66414371 48.33232636 57 50 C54.03 50 51.06 50 48 50 C46.89497588 46.85446558 45.79096031 43.70858301 44.6875 40.5625 C44.2244043 39.24475586 44.2244043 39.24475586 43.75195312 37.90039062 C42.82940782 35.26870875 41.91256816 32.63515766 41 30 C40.70303223 29.1426123 40.40606445 28.28522461 40.10009766 27.40185547 C39.82601074 26.5976416 39.55192383 25.79342773 39.26953125 24.96484375 C39.02436768 24.24804443 38.7792041 23.53124512 38.52661133 22.79272461 C38 21 38 21 38 19 C37.34 19 36.68 19 36 19 C35.87761963 19.86512207 35.75523926 20.73024414 35.62915039 21.62158203 C35.00987984 24.94694716 34.09481942 27.88176103 32.93359375 31.0546875 C32.53076172 32.16328125 32.12792969 33.271875 31.71289062 34.4140625 C31.29201172 35.55617188 30.87113281 36.69828125 30.4375 37.875 C30.01275391 39.0403125 29.58800781 40.205625 29.15039062 41.40625 C28.1048911 44.27256331 27.05462612 47.13703486 26 50 C23.03 50 20.06 50 17 50 C16.76925781 49.32759277 16.53851563 48.65518555 16.30078125 47.96240234 C11.78624237 34.82250682 7.23396516 21.70344198 2.38867188 8.68115234 C2.07349609 7.82730957 1.75832031 6.9734668 1.43359375 6.09375 C1.15572021 5.34802734 0.87784668 4.60230469 0.59155273 3.83398438 C0 2 0 2 0 0 Z " fill="#F2F2F2" transform="translate(327,300)"/>
<path d="M0 0 C4.29 0 8.58 0 13 0 C13 27.39 13 54.78 13 83 C27.85 83 42.7 83 58 83 C58 86.3 58 89.6 58 93 C38.86 93 19.72 93 0 93 C0 62.31 0 31.62 0 0 Z " fill="#0A0B0B" transform="translate(809,110)"/>
<path d="M0 0 C2.97 0 5.94 0 9 0 C9.13535156 1.06476563 9.27070313 2.12953125 9.41015625 3.2265625 C11.60085935 18.65984228 16.86590139 31.51904834 29 42 C42.58016594 51.90810201 57.04646747 54.72139967 73.52734375 52.53125 C86.6974734 49.90035609 97.8598536 43.04570908 106.0390625 32.328125 C112.93707285 21.93707961 115.6472091 12.35311686 117 0 C119.97 0 122.94 0 126 0 C127.48138722 14.48467502 121.53090499 27.54630101 113 39 C112.42894531 39.77730469 111.85789062 40.55460937 111.26953125 41.35546875 C101.85207019 53.02187573 86.13735136 61.66383593 71.19238281 63.30908203 C60.08485401 64.03873366 49.15970708 63.99125144 39 59 C37.9275 58.50242188 36.855 58.00484375 35.75 57.4921875 C18.51813876 48.91614545 8.96300795 35.44515775 2 18 C0.16810796 11.97745227 -0.23203106 6.26483865 0 0 Z " fill="#F3F3F3" transform="translate(258,174)"/>
<path d="M0 0 C2.97 0 5.94 0 9 0 C13.17413848 8.1586683 17.0347019 16.40850997 20.6875 24.8125 C21.39616211 26.43188477 21.39616211 26.43188477 22.11914062 28.08398438 C23.0222901 30.14995464 23.92291768 32.21702992 24.82055664 34.28540039 C25.53294498 35.92502904 26.24960822 37.56282244 26.97436523 39.19702148 C28.56518344 42.80913701 29.52066604 46.06946155 30 50 C26.7 50 23.4 50 20 50 C18.68 47.03 17.36 44.06 16 41 C8.41 41 0.82 41 -7 41 C-8.32 43.97 -9.64 46.94 -11 50 C-14.3 50 -17.6 50 -21 50 C-20.42086439 46.42446713 -19.46992287 43.67859163 -17.75 40.5 C-15.84601501 36.81069198 -14.24540203 33.14586175 -12.8125 29.25 C-9.08962893 19.27030367 -4.46878697 9.66220695 0 0 Z " fill="#F3F3F3" transform="translate(300,300)"/>
<path d="M0 0 C4.29 0 8.58 0 13 0 C13 31.02 13 62.04 13 94 C8.71 94 4.42 94 0 94 C0 62.98 0 31.96 0 0 Z " fill="#0E0F0F" transform="translate(1187,110)"/>
<path d="M0 0 C12.21 0 24.42 0 37 0 C37 3.3 37 6.6 37 10 C28.42 10 19.84 10 11 10 C11 12.97 11 15.94 11 19 C16.94 19 22.88 19 29 19 C29 22.3 29 25.6 29 29 C22.73 29 16.46 29 10 29 C10 32.96 10 36.92 10 41 C19.24 41 28.48 41 38 41 C38 43.97 38 46.94 38 50 C25.46 50 12.92 50 0 50 C0 33.5 0 17 0 0 Z " fill="#EBEBEB" transform="translate(409,300)"/>
<path d="M0 0 C3.63 0 7.26 0 11 0 C11.01401855 1.55110474 11.01401855 1.55110474 11.02832031 3.13354492 C11.06829421 6.98244776 11.13407249 10.83055746 11.20751953 14.67895508 C11.23568649 16.34226263 11.25692233 18.00570296 11.27099609 19.66918945 C11.29248592 22.06530525 11.33916288 24.45983184 11.390625 26.85546875 C11.39185364 27.5952446 11.39308228 28.33502045 11.39434814 29.09721375 C11.53179977 33.97909802 12.45185151 36.61468531 16 40 C19.71673547 40.87999178 23.2439606 40.62790932 27 40 C30.16620095 37.81381363 30.7896387 36.63108389 32 33 C32.15269181 30.56219623 32.25682697 28.14716099 32.31640625 25.70703125 C32.33718735 25.00100266 32.35796844 24.29497406 32.37937927 23.56755066 C32.44467491 21.31596449 32.50366647 19.06426338 32.5625 16.8125 C32.60570425 15.2844934 32.64931916 13.75649836 32.69335938 12.22851562 C32.80033574 8.48579438 32.90165922 4.7429577 33 1 C36.3 1 39.6 1 43 1 C43.09951569 5.83799361 43.17177037 10.67538025 43.21972656 15.51416016 C43.23973571 17.1571695 43.26695213 18.80010859 43.30175781 20.44287109 C43.35075305 22.81625788 43.37307504 25.18869649 43.390625 27.5625 C43.41127014 28.28679199 43.43191528 29.01108398 43.45318604 29.75732422 C43.45578915 35.78959856 41.76244598 41.07485167 37.55230713 45.53295898 C31.20932702 51.01675746 25.93333741 51.61575082 17.71484375 51.375 C12.70867397 50.86964532 9.50948479 49.60923758 6 46 C1.19130415 39.75305373 -0.31073907 32.92055978 -0.1953125 25.1953125 C-0.1924826 24.4713327 -0.18965271 23.74735291 -0.18673706 23.00143433 C-0.17562087 20.7091151 -0.15053312 18.41719937 -0.125 16.125 C-0.1149591 14.56250568 -0.10583519 13.00000518 -0.09765625 11.4375 C-0.07570973 7.62484662 -0.04124013 3.81249152 0 0 Z " fill="#F0F0F0" transform="translate(230,300)"/>
<path d="M0 0 C2.97 0 5.94 0 9 0 C9 6.6 9 13.2 9 20 C16.92 20 24.84 20 33 20 C33 13.4 33 6.8 33 0 C35.97 0 38.94 0 42 0 C42 16.17 42 32.34 42 49 C39.03 49 36.06 49 33 49 C33 42.4 33 35.8 33 29 C25.41 29 17.82 29 10 29 C10 35.6 10 42.2 10 49 C6.7 49 3.4 49 0 49 C0 32.83 0 16.66 0 0 Z " fill="#FBFBFB" transform="translate(174,301)"/>
<path d="M0 0 C3.465 -0.0825 6.93 -0.165 10.5 -0.25 C12.11358398 -0.30462402 12.11358398 -0.30462402 13.75976562 -0.36035156 C21.48030038 -0.44866764 26.90706892 0.9843922 32.5 6.4375 C35.21328437 12.88155039 34.90563027 19.83029405 33 26.5 C29.59189596 30.76013005 25.68609287 33.61473807 20.19140625 34.40283203 C17.10914895 34.49051003 14.08153391 34.4368619 11 34.3125 C7.37 34.209375 3.74 34.10625 0 34 C0 22.78 0 11.56 0 0 Z " fill="#FCFCFC" transform="translate(745,121)"/>
<path d="M0 0 C3.795 -0.12375 7.59 -0.2475 11.5 -0.375 C13.27020508 -0.45693604 13.27020508 -0.45693604 15.07617188 -0.54052734 C21.64854482 -0.64370605 25.51267762 0.14828786 30.54296875 4.48095703 C33.85284509 7.93170277 34.1486849 11.19850259 34.4375 15.8125 C34.3255161 21.17172928 32.66479877 25.08183242 29 29 C25.27962655 31.63621057 22.80162763 32.36580151 18.26171875 32.29296875 C17.29967529 32.28547607 16.33763184 32.2779834 15.34643555 32.27026367 C14.13898682 32.24295166 12.93153809 32.21563965 11.6875 32.1875 C5.9021875 32.0946875 5.9021875 32.0946875 0 32 C0 21.44 0 10.88 0 0 Z " fill="#FCFCFC" transform="translate(990,121)"/>
<path d="M0 0 C3.3 0 6.6 0 10 0 C10 16.5 10 33 10 50 C6.7 50 3.4 50 0 50 C0 33.5 0 17 0 0 Z " fill="#F4F4F4" transform="translate(459,300)"/>
<path d="M0 0 C3.04662882 2.56417147 4.20951098 5.40969231 5.6875 9.0625 C6.34298828 10.65771484 6.34298828 10.65771484 7.01171875 12.28515625 C8 15 8 15 8 17 C3.05 17 -1.9 17 -7 17 C-5.11994266 10.98381653 -2.93937169 5.57467045 0 0 Z " fill="#191A1A" transform="translate(304,314)"/>
<path d="M0 0 C0.66 0.33 1.32 0.66 2 1 C-3.94 6.94 -9.88 12.88 -16 19 C-16 14.80130728 -14.19810866 13.66463027 -11.375 10.625 C-10.9207666 10.13475342 -10.4665332 9.64450684 -9.99853516 9.1394043 C-6.85830473 5.79321137 -3.64356736 2.78061719 0 0 Z " fill="#DFDFE0" transform="translate(48,30)"/>
<path d="M0 0 C0.66 0.33 1.32 0.66 2 1 C-2.62 5.62 -7.24 10.24 -12 15 C-12.66 14.67 -13.32 14.34 -14 14 C-12.60919892 12.41224451 -11.21211596 10.82999061 -9.8125 9.25 C-8.64654297 7.92742187 -8.64654297 7.92742187 -7.45703125 6.578125 C-5.11544754 4.12113732 -2.69841735 2.05137234 0 0 Z " fill="#2D2E2E" transform="translate(162,128)"/>
<path d="M0 0 C9.24 0 18.48 0 28 0 C28 0.33 28 0.66 28 1 C26.84213989 1.03758423 26.84213989 1.03758423 25.66088867 1.07592773 C22.16958819 1.19184007 18.67856078 1.31458824 15.1875 1.4375 C13.97255859 1.47681641 12.75761719 1.51613281 11.50585938 1.55664062 C10.34248047 1.59853516 9.17910156 1.64042969 7.98046875 1.68359375 C6.90692139 1.72025146 5.83337402 1.75690918 4.72729492 1.79467773 C1.90688447 1.89541847 1.90688447 1.89541847 -1 3 C-0.67 2.01 -0.34 1.02 0 0 Z " fill="#2B2C2C" transform="translate(634,267)"/>
<path d="M0 0 C0.66 0.33 1.32 0.66 2 1 C-1.63 4.63 -5.26 8.26 -9 12 C-9.66 11.67 -10.32 11.34 -11 11 C-9.92173635 9.72486237 -8.83714481 8.45507431 -7.75 7.1875 C-7.14671875 6.47980469 -6.5434375 5.77210938 -5.921875 5.04296875 C-4.07629602 3.08110329 -2.20054668 1.54330375 0 0 Z " fill="#292929" transform="translate(1270,372)"/>
<path d="M0 0 C0.66 0.33 1.32 0.66 2 1 C-1.63 4.63 -5.26 8.26 -9 12 C-9 7.8407692 -6.75316432 5.85455565 -4 3 C-1.6875 1.125 -1.6875 1.125 0 0 Z " fill="#2C2D2D" transform="translate(1357,115)"/>
<path d="M0 0 C0.66 0.33 1.32 0.66 2 1 C-1.3 4.3 -4.6 7.6 -8 11 C-8 8 -8 8 -5.6875 5.5 C-4.800625 4.675 -3.91375 3.85 -3 3 C-2.401875 2.401875 -1.80375 1.80375 -1.1875 1.1875 C-0.795625 0.795625 -0.40375 0.40375 0 0 Z " fill="#D1D2D2" transform="translate(899,122)"/>
</svg>
